<mxfile host="app.diagrams.net" modified="2021-01-16T19:10:40.188Z" agent="5.0 (Windows NT 10.0; Win64; x64) AppleWebKit/537.36 (KHTML, like Gecko) Chrome/87.0.4280.141 Safari/537.36" etag="7zf_zE7h1WbNcMdmv-XF" version="14.2.4" type="github">
  <diagram id="NCj45rP1nZp5nVnPlE9x" name="Page-1">
    <mxGraphModel dx="2062" dy="1160" grid="1" gridSize="10" guides="1" tooltips="1" connect="1" arrows="1" fold="1" page="1" pageScale="1" pageWidth="850" pageHeight="1100" math="0" shadow="0">
      <root>
        <mxCell id="0" />
        <mxCell id="1" parent="0" />
        <mxCell id="EMhfwQk1yu2o5E5q7FuK-4" value="" style="rounded=0;whiteSpace=wrap;html=1;fillColor=none;" vertex="1" parent="1">
          <mxGeometry x="620" y="210" width="200" height="100" as="geometry" />
        </mxCell>
        <mxCell id="EMhfwQk1yu2o5E5q7FuK-1" value="" style="rounded=0;whiteSpace=wrap;html=1;fillColor=none;" vertex="1" parent="1">
          <mxGeometry x="60" y="210" width="160" height="100" as="geometry" />
        </mxCell>
        <mxCell id="EMhfwQk1yu2o5E5q7FuK-2" value="" style="rounded=0;whiteSpace=wrap;html=1;fillColor=none;" vertex="1" parent="1">
          <mxGeometry x="230" y="210" width="180" height="100" as="geometry" />
        </mxCell>
        <mxCell id="nzJn4w158FAHuBrQBXu1-1" value="" style="rounded=0;whiteSpace=wrap;html=1;fillColor=none;" parent="1" vertex="1">
          <mxGeometry x="60" y="140" width="760" height="880" as="geometry" />
        </mxCell>
        <mxCell id="nzJn4w158FAHuBrQBXu1-7" value="" style="rounded=0;whiteSpace=wrap;html=1;fillColor=none;" parent="1" vertex="1">
          <mxGeometry x="60" y="210" width="760" height="100" as="geometry" />
        </mxCell>
        <mxCell id="nzJn4w158FAHuBrQBXu1-2" value="Booking Inquiries" style="text;html=1;strokeColor=none;fillColor=none;align=center;verticalAlign=middle;whiteSpace=wrap;rounded=0;" parent="1" vertex="1">
          <mxGeometry x="105" y="250" width="70" height="20" as="geometry" />
        </mxCell>
        <mxCell id="nzJn4w158FAHuBrQBXu1-3" value="Services" style="text;html=1;strokeColor=none;fillColor=none;align=center;verticalAlign=middle;whiteSpace=wrap;rounded=0;" parent="1" vertex="1">
          <mxGeometry x="280" y="250" width="80" height="20" as="geometry" />
        </mxCell>
        <mxCell id="nzJn4w158FAHuBrQBXu1-5" value="Calendar&lt;br&gt;(Upcoming Events)" style="text;html=1;strokeColor=none;fillColor=none;align=center;verticalAlign=middle;whiteSpace=wrap;rounded=0;" parent="1" vertex="1">
          <mxGeometry x="480" y="250" width="70" height="20" as="geometry" />
        </mxCell>
        <mxCell id="nzJn4w158FAHuBrQBXu1-6" value="Gallery" style="text;html=1;strokeColor=none;fillColor=none;align=center;verticalAlign=middle;whiteSpace=wrap;rounded=0;" parent="1" vertex="1">
          <mxGeometry x="680" y="250" width="70" height="20" as="geometry" />
        </mxCell>
        <mxCell id="nzJn4w158FAHuBrQBXu1-8" value="HHC Entertainment Inc." style="text;html=1;strokeColor=none;fillColor=none;align=center;verticalAlign=middle;whiteSpace=wrap;rounded=0;" parent="1" vertex="1">
          <mxGeometry x="110" y="160" width="340" height="20" as="geometry" />
        </mxCell>
        <mxCell id="EMhfwQk1yu2o5E5q7FuK-3" value="" style="rounded=0;whiteSpace=wrap;html=1;fillColor=none;" vertex="1" parent="1">
          <mxGeometry x="420" y="210" width="210" height="100" as="geometry" />
        </mxCell>
        <mxCell id="EMhfwQk1yu2o5E5q7FuK-5" value="&lt;h1&gt;Your Night Out Isn&#39;t Complete Without...&lt;/h1&gt;&lt;p&gt;Lorem ipsum dolor sit amet, consectetur adipisicing elit, sed do eiusmod tempor incididunt ut labore et dolore magna aliqua.&lt;/p&gt;" style="text;html=1;strokeColor=none;fillColor=none;spacing=5;spacingTop=-20;whiteSpace=wrap;overflow=hidden;rounded=0;" vertex="1" parent="1">
          <mxGeometry x="120" y="400" width="640" height="120" as="geometry" />
        </mxCell>
        <mxCell id="EMhfwQk1yu2o5E5q7FuK-6" value="&lt;h1&gt;Upcoming Promotions&lt;/h1&gt;&lt;p&gt;Lorem ipsum dolor sit amet, consectetur adipisicing elit, sed do eiusmod tempor incididunt ut labore et dolore magna aliqua.&lt;/p&gt;" style="text;html=1;strokeColor=none;fillColor=none;spacing=5;spacingTop=-20;whiteSpace=wrap;overflow=hidden;rounded=0;" vertex="1" parent="1">
          <mxGeometry x="120" y="560" width="640" height="120" as="geometry" />
        </mxCell>
        <mxCell id="EMhfwQk1yu2o5E5q7FuK-7" value="&lt;h1&gt;Swag Giveaway Details&lt;/h1&gt;&lt;p&gt;Lorem ipsum dolor sit amet, consectetur adipisicing elit, sed do eiusmod tempor incididunt ut labore et dolore magna aliqua.&lt;/p&gt;" style="text;html=1;strokeColor=none;fillColor=none;spacing=5;spacingTop=-20;whiteSpace=wrap;overflow=hidden;rounded=0;" vertex="1" parent="1">
          <mxGeometry x="120" y="720" width="640" height="120" as="geometry" />
        </mxCell>
      </root>
    </mxGraphModel>
  </diagram>
</mxfile>
